<svg width="286" height="33" viewBox="0 0 286 33" fill="none" xmlns="http://www.w3.org/2000/svg">
<path d="M46.2444 0.554443V1.02717L45.7746 1.14535C44.2476 1.73626 42.9555 3.03626 42.3682 4.57263L31.7968 32.109H29.3301L24.6317 12.0181L17.5841 32.109H15.1174L4.66347 4.92718C4.07617 3.39081 2.78411 2.09081 1.25712 1.4999L0.0825195 1.02717V0.554443H11.5936V1.02717L9.71426 1.73626C8.89204 2.09081 8.4222 3.03627 8.77458 3.86354L17.3492 26.1999L24.5143 0.554443L31.5619 26.1999L40.1365 3.74536C40.4889 2.91809 40.019 1.85445 39.1968 1.61808L37.5524 1.02717V0.554443H46.2444Z" fill="white"/>
<path d="M194.127 7.64526V7.99981L193.775 8.11799C192.6 8.59072 191.66 9.53618 191.191 10.718L183.321 31.2816H181.559L178.035 16.2725L172.749 31.2816H170.987L163.235 10.9544C162.765 9.77254 161.825 8.82709 160.651 8.35436L159.829 7.99981V7.64526H168.403V7.99981L166.994 8.59072C166.289 8.82709 166.054 9.53618 166.289 10.2453L172.632 26.9089L177.917 7.76345L183.203 26.9089L189.664 10.1271C189.898 9.418 189.546 8.70891 188.959 8.47254L187.784 7.99981V7.64526H194.127Z" fill="white"/>
<path d="M70.0889 31.518V31.8726H60.927V31.518L62.454 30.9271C63.1587 30.6908 63.5111 29.8635 63.2762 29.1544L60.6921 22.2999H52.3524L49.6508 29.2726C49.4159 29.9817 49.7683 30.6908 50.473 31.0453L51.7651 31.518V31.8726H44.9524V31.6362L45.3048 31.518C46.5968 31.0453 47.5365 30.0999 48.0064 28.7999L56.346 7.05444H58.2254L66.4476 28.5635C66.9175 29.8635 67.8571 30.809 69.1492 31.2817L70.0889 31.518ZM59.8698 20.6453L56.4635 11.6635L53.0572 20.6453H59.8698Z" fill="white"/>
<path d="M96.7523 11.8999H96.3999L94.5206 9.77263C94.0507 9.18172 93.2285 8.94536 92.5238 8.94536H87.0031V29.0363C87.0031 30.0999 87.7079 31.1635 88.765 31.5181L89.4698 31.7544V32.109H81.2476V31.7544L81.9523 31.5181C83.0095 31.0453 83.7142 30.0999 83.7142 29.0363V8.94536H78.1936C77.3714 8.94536 76.6666 9.2999 76.1968 9.77263L74.3174 11.8999H73.965L74.6698 7.05444H96.2825L96.7523 11.8999Z" fill="white"/>
<path d="M118.6 27.1454L117.895 31.9908H100.159V31.6363L100.863 31.3999C101.921 30.9272 102.625 29.9817 102.625 28.9181V10.009C102.625 8.94537 101.921 7.88173 100.863 7.52719L100.159 7.29083V6.93628H116.486L117.19 11.7817H116.838L114.959 9.65447C114.489 9.06356 113.667 8.82719 112.962 8.82719H106.032V17.9272H109.79C110.848 17.9272 111.905 17.2181 112.257 16.1545H112.609V21.4727H112.257C111.787 20.409 110.848 19.6999 109.79 19.6999H106.032V30.0999H114.371C115.194 30.0999 115.898 29.7454 116.368 29.2727L118.248 27.1454H118.6Z" fill="white"/>
<path d="M143.032 31.5181V31.8727H137.276C137.276 31.8727 136.689 30.5727 134.927 26.5545C133.4 23.1272 132.343 20.0545 130.581 20.0545H127.644V28.7999C127.644 29.8636 128.349 30.9272 129.406 31.2817L130.111 31.5181V31.8727H121.889V31.5181L122.594 31.2817C123.651 30.809 124.356 29.8636 124.356 28.7999V9.89084C124.356 8.8272 123.651 7.76357 122.594 7.40902L121.889 7.17266V6.81812H131.168C138.098 6.81812 139.743 9.77266 139.743 13.4363C139.743 16.1545 138.803 18.6363 135.279 19.5818C136.571 21.1181 137.511 23.1272 138.333 25.1363C138.921 26.5545 139.508 27.8545 139.978 28.9181C140.448 30.0999 141.387 30.9272 142.562 31.3999L143.032 31.5181ZM133.048 17.9272C134.575 17.4545 135.984 16.2727 135.984 13.4363C135.984 9.29993 133.165 8.70902 130.933 8.70902H127.527V18.1636H130.933C131.638 18.1636 132.343 18.1636 133.048 17.9272Z" fill="white"/>
<path d="M221.965 31.518V31.8726H212.803V31.518L214.33 30.9271C215.035 30.6908 215.387 29.8635 215.152 29.1544L212.568 22.2999H204.229L201.527 29.2726C201.292 29.9817 201.644 30.6908 202.349 31.0453L203.641 31.518V31.8726H196.946V31.6362L197.298 31.518C198.59 31.0453 199.53 30.0999 200 28.7999L208.34 7.05444H210.219L218.441 28.5635C218.911 29.8635 219.851 30.809 221.143 31.2817L221.965 31.518ZM211.746 20.6453L208.34 11.6635L204.933 20.6453H211.746Z" fill="white"/>
<path d="M244.635 27.1454L243.93 31.9908H225.371V31.6363L226.076 31.3999C227.133 30.9272 227.838 29.9817 227.838 28.9181V10.009C227.838 8.94537 227.133 7.88173 226.076 7.52719L225.371 7.29083V6.93628H233.594V7.29083L232.889 7.52719C231.832 7.99992 231.127 8.94537 231.127 10.009V30.0999H240.289C241.111 30.0999 241.816 29.7454 242.286 29.2727L244.165 27.1454H244.635Z" fill="white"/>
<path d="M266.952 27.0272L266.248 31.8727H247.689V31.5181L248.394 31.2817C249.451 30.809 250.156 29.8636 250.156 28.7999V9.89084C250.156 8.8272 249.451 7.76357 248.394 7.40902L247.689 7.17266V6.81812H255.911V7.17266L255.206 7.40902C254.149 7.88175 253.444 8.8272 253.444 9.89084V29.9818H262.606C263.429 29.9818 264.133 29.6272 264.603 29.1545L266.483 27.0272H266.952Z" fill="white"/>
<path d="M279.521 17.2181C282.575 18.9908 285.863 20.2908 285.863 25.3727C285.863 29.2727 281.87 31.8727 277.524 31.8727C275.762 31.8727 273.53 31.5181 271.416 29.3908L270.829 30.3363H270.476V25.4908H270.829C270.829 25.4908 272.825 30.0999 277.641 30.0999C280.46 30.0999 282.457 28.6817 282.457 25.3727C282.457 23.4817 280.578 21.8272 277.876 20.1727C274.94 18.3999 271.533 17.2181 271.533 13.1999C271.533 9.29993 274.705 6.81812 279.051 6.81812C280.695 6.81812 282.457 7.29084 283.984 8.23629L284.454 7.29084H284.806L285.511 12.1363H285.159C285.159 12.1363 283.514 8.70902 279.051 8.70902C277.054 8.70902 274.235 9.65448 274.235 12.0181C274.117 14.6181 276.819 15.6818 279.521 17.2181Z" fill="white"/>
</svg>
